<svg xmlns="http://www.w3.org/2000/svg" xmlns:xlink="http://www.w3.org/1999/xlink" width="1920" zoomAndPan="magnify" viewBox="0 0 1440 809.999993" height="1080" preserveAspectRatio="xMidYMid meet" version="1.0"><defs><filter x="0%" y="0%" width="100%" height="100%" id="088ea742b3"><feColorMatrix values="0 0 0 0 1 0 0 0 0 1 0 0 0 0 1 0 0 0 1 0" color-interpolation-filters="sRGB"/></filter><mask id="b293ac6dcb"><g filter="url(#088ea742b3)"><rect x="-144" width="1728" fill="#000000" y="-80.999999" height="971.999992" fill-opacity="0.05"/></g></mask><clipPath id="423d66c592"><path d="M 0.441406 36 L 1437.558594 36 L 1437.558594 786 L 0.441406 786 Z M 0.441406 36 " clip-rule="nonzero"/></clipPath><clipPath id="32dabcb949"><path d="M 16 36 L 1437.53125 36 L 1437.53125 798.996094 L 16 798.996094 Z M 16 36 " clip-rule="nonzero"/></clipPath><clipPath id="c529cfd2bf"><path d="M 0.441406 10.800781 L 1437.558594 10.800781 L 1437.558594 776 L 0.441406 776 Z M 0.441406 10.800781 " clip-rule="nonzero"/></clipPath><clipPath id="02632d68ad"><rect x="0" width="1438" y="0" height="800"/></clipPath></defs><g mask="url(#b293ac6dcb)"><g transform="matrix(1, 0, 0, 1, 1, 0.000000000000039746)"><g clip-path="url(#02632d68ad)"><g clip-path="url(#423d66c592)"><path fill="#14b8a6" d="M 159.28125 105.140625 L 129.34375 146.96875 L 175.578125 152.621094 Z M 224.773438 258.691406 L 220.292969 274.089844 L 275.101562 291.632812 Z M 163.296875 583.5 L 255.453125 498.007812 L 129.34375 471.695312 Z M 315.957031 458.050781 L 311.511719 409.789062 L 299.582031 414.664062 Z M 1060.140625 629.730469 L 1101.773438 632.5 L 1085.402344 604.742188 Z M 1078.929688 228.363281 L 1047.195312 223.996094 L 1058.386719 260.914062 Z M 797.902344 670.117188 L 832.558594 674.015625 L 819.964844 650.238281 Z M 1399.640625 131.804688 L 1384.046875 124.433594 L 1384.28125 143.03125 Z M 1008.875 785.820312 L 1043.921875 761.105469 L 1002.445312 750.734375 Z M 438.128906 662.007812 L 472.707031 670.234375 L 452.980469 633.394531 Z M 163.453125 439.886719 L 121.78125 437.15625 L 138.15625 464.910156 Z M 125.484375 646.535156 L 157.21875 650.898438 L 145.988281 613.984375 Z M 419.027344 357.203125 L 431.578125 380.980469 L 453.644531 361.101562 Z M 59.371094 711.636719 L 74.964844 719.003906 L 74.730469 700.40625 Z M 711.632812 392.324219 L 736.894531 367.296875 L 695.257812 364.570312 Z M 684.734375 522.527344 L 664.230469 555.078125 L 695.960938 559.445312 Z M 976.597656 269.453125 L 989.191406 293.269531 L 1011.214844 273.390625 Z M 544.785156 636.828125 L 560.378906 644.15625 L 560.144531 625.601562 Z M 921.632812 211.328125 L 886.585938 236.042969 L 928.066406 246.453125 Z M 0.464844 462.339844 L 0.464844 493.679688 L 16.839844 521.476562 L 71.765625 467.054688 Z M 43.425781 294.402344 L 0.464844 302.273438 L 0.464844 379.851562 L 16.410156 402.539062 Z M 0.464844 148.332031 L 80.304688 97.574219 L 0.464844 121.980469 Z M 523.734375 589.382812 L 570.320312 543.230469 L 493.484375 538.160156 Z M 208.871094 473.761719 L 278.726562 346.210938 L 137.023438 376.539062 Z M 385.929688 514.226562 L 429.394531 453.449219 L 362.265625 445.265625 Z M 438.246094 404.683594 L 492.820312 482.257812 L 515.703125 390.492188 Z M 282.039062 631.136719 L 333.613281 572.152344 L 256.664062 532.820312 Z M 380.238281 384.414062 L 350.765625 298.492188 L 389.59375 308.238281 L 383.199219 273.117188 L 348.15625 297.832031 L 349.402344 298.183594 L 295.136719 374.003906 Z M 577.570312 229.765625 L 463.3125 264.65625 L 481.046875 291.085938 Z M 1414.457031 36.722656 L 1425.722656 157.335938 L 1437.53125 150.59375 L 1437.53125 53.175781 Z M 1437.53125 381.761719 L 1437.53125 345.859375 L 1403.695312 357.515625 Z M 785.699219 383.164062 L 825.96875 379.460938 L 821.914062 369.480469 Z M 594.332031 415.753906 L 529.699219 518.125 L 629.652344 531.960938 Z M 720.285156 625.171875 L 724.496094 560.964844 L 681.769531 586.226562 Z M 616.320312 564.550781 L 645.089844 578.078125 L 644.660156 543.8125 Z M 749.640625 208.519531 L 760.90625 329.132812 L 848.460938 279.003906 Z M 928.84375 503.269531 L 964.789062 493.992188 L 943.230469 475.085938 Z M 846.203125 445.539062 L 788.703125 465.339844 L 839.378906 501.671875 Z M 776.96875 573.910156 L 853.492188 593.085938 L 841.640625 528.296875 Z M 659.472656 297.441406 L 606.886719 363.867188 L 672.066406 368.507812 Z M 998.3125 567.085938 L 1117.132812 526.191406 L 1012.425781 451.113281 Z M 863.507812 383.164062 L 854.855469 454.308594 L 927.753906 429.242188 Z M 862.691406 596.597656 L 951.960938 562.835938 L 852.671875 571.960938 Z M 1178.882812 458.050781 L 1174.4375 409.789062 L 1162.507812 414.664062 Z M 60.1875 565.136719 L 78.902344 509.429688 L 28.691406 578.234375 Z M 591.992188 403.125 L 646.414062 381.136719 L 561.546875 387.648438 Z M 1402.722656 187.238281 L 1384.046875 242.941406 L 1434.257812 174.097656 Z M 1339.023438 778.257812 L 1355.550781 658.460938 L 1216.5 700.796875 Z M 1386.660156 589.382812 L 1433.246094 543.230469 L 1356.410156 538.160156 Z M 1367.871094 648.367188 L 1384.085938 613.90625 L 1343.078125 614.410156 Z M 1071.992188 317.324219 L 1036.828125 458.050781 L 1155.648438 436.296875 Z M 1287.722656 223.21875 L 1265.113281 249.0625 L 1298.832031 266.292969 Z M 1248.855469 514.226562 L 1292.320312 453.449219 L 1225.191406 445.265625 Z M 1355.746094 482.257812 L 1378.628906 390.492188 L 1301.171875 404.683594 Z M 1144.964844 631.136719 L 1196.539062 572.152344 L 1119.628906 532.820312 Z M 1287.019531 83.972656 L 1197.164062 209.496094 L 1335.945312 226.414062 Z M 1213.1875 297.011719 L 1158.066406 374.003906 L 1243.164062 384.414062 Z M 1352.316406 351.667969 L 1341.402344 232.613281 L 1381.75 339.660156 L 1352.316406 351.667969 " fill-opacity="1" fill-rule="nonzero"/></g><g clip-path="url(#32dabcb949)"><path fill="#ea580c" d="M 90.59375 435.207031 L 70.207031 418.71875 L 67.167969 439.847656 Z M 128.644531 328.394531 L 68.648438 377.121094 L 127.589844 398.796875 Z M 1060.140625 629.730469 L 1085.402344 604.742188 L 1071.835938 595.269531 Z M 1271.347656 306.679688 L 1257.859375 323.402344 L 1275.128906 325.859375 Z M 1058.386719 260.914062 L 1084.425781 233.003906 L 1078.929688 228.363281 Z M 797.902344 670.117188 L 819.964844 650.238281 L 809.050781 641.816406 Z M 1119.238281 335.019531 L 1155.023438 356.8125 L 1155.335938 322.703125 Z M 1065.480469 149.152344 L 1065.167969 167.082031 L 1077.796875 159.871094 Z M 1043.921875 761.105469 L 1005.40625 743.289062 L 1002.445312 750.734375 Z M 472.707031 670.234375 L 438.128906 662.007812 L 437.308594 678.5 Z M 344.957031 670.273438 L 366.242188 672.886719 L 359.1875 656.902344 Z M 163.453125 439.886719 L 138.15625 464.910156 L 151.71875 474.347656 Z M 95.898438 548.453125 L 109.347656 531.769531 L 92.117188 529.273438 Z M 145.988281 613.984375 L 119.988281 641.894531 L 125.484375 646.535156 Z M 453.644531 361.101562 L 431.578125 380.980469 L 442.53125 389.402344 Z M 238.847656 569.269531 L 203.0625 547.476562 L 202.75 581.589844 Z M 219.511719 693.546875 L 204.308594 702.980469 L 217.210938 709.6875 Z M 348.15625 297.832031 L 386.671875 315.644531 L 389.59375 308.238281 Z M 736.894531 367.296875 L 711.632812 392.324219 L 725.199219 401.757812 Z M 638.421875 460.703125 L 651.910156 444.015625 L 634.640625 441.5625 Z M 684.734375 522.527344 L 658.730469 550.441406 L 664.230469 555.078125 Z M 1011.214844 273.390625 L 989.191406 293.269531 L 1000.105469 301.652344 Z M 781.644531 443.433594 L 745.859375 421.679688 L 745.546875 455.75 Z M 777.125 605.796875 L 761.882812 615.230469 L 774.785156 621.972656 Z M 886.585938 236.042969 L 925.101562 253.859375 L 928.066406 246.453125 Z M 71.765625 467.054688 L 16.839844 521.476562 L 46.3125 541.980469 Z M 109.308594 644.855469 L 138.582031 608.523438 L 101.082031 603.144531 Z M 16.410156 402.539062 L 62.722656 302.121094 L 43.425781 294.402344 Z M 570.320312 543.230469 L 523.734375 589.382812 L 548.722656 606.808594 Z M 388.699219 516.253906 L 340.671875 595.425781 L 415.867188 596.089844 Z M 278.726562 346.210938 L 134.996094 349.5625 L 137.023438 376.539062 Z M 460.308594 551.296875 L 485.179688 520.5 L 453.332031 515.941406 Z M 492.820312 482.257812 L 532.078125 397.042969 L 515.703125 390.492188 Z M 253.503906 251.285156 L 308.160156 326.054688 L 337.589844 256.742188 Z M 256.664062 532.820312 L 333.613281 572.152344 L 345.074219 533.640625 Z M 1437.53125 710.503906 L 1388.0625 680.449219 L 1387.519531 743.289062 L 1437.53125 726.214844 Z M 1414.457031 36.722656 L 1403.1875 156.363281 L 1425.722656 157.335938 Z M 594.332031 415.753906 L 512.429688 503.582031 L 529.699219 518.125 Z M 720.285156 625.171875 L 681.769531 586.226562 L 667.230469 607.121094 Z M 744.882812 461.363281 L 678.808594 421.210938 L 678.261719 484.089844 Z M 749.640625 208.519531 L 738.335938 328.160156 L 760.90625 329.132812 Z M 715.609375 521.242188 L 741.335938 541.980469 L 745.117188 515.394531 Z M 928.84375 503.269531 L 943.230469 475.085938 L 929.117188 470.875 Z M 776.96875 573.910156 L 848.035156 606.769531 L 853.492188 593.085938 Z M 1028.40625 365.894531 L 968.296875 317.324219 L 959.40625 379.578125 Z M 659.472656 297.441406 L 672.066406 368.507812 L 703.484375 356.734375 Z M 1216.5 700.796875 L 1321.636719 798.996094 L 1339.023438 778.257812 Z M 1433.246094 543.230469 L 1386.660156 589.382812 L 1411.648438 606.808594 Z M 1251.625 516.253906 L 1203.597656 595.425781 L 1278.792969 596.089844 Z M 1071.953125 317.324219 L 1011.722656 448.03125 L 1036.828125 458.050781 Z M 1323.234375 551.296875 L 1348.105469 520.5 L 1316.257812 515.941406 Z M 1298.832031 266.292969 L 1265.113281 249.0625 L 1260.082031 265.941406 Z M 1355.746094 482.257812 L 1395.003906 397.042969 L 1378.628906 390.492188 Z M 1176.074219 244.738281 L 1117.949219 316.855469 L 1192.449219 327.496094 Z M 1208 533.640625 L 1196.539062 572.152344 L 1119.628906 532.820312 Z M 1208 533.640625 " fill-opacity="1" fill-rule="nonzero"/></g><g clip-path="url(#c529cfd2bf)"><path fill="#ffffff" d="M 678.261719 484.089844 L 697.480469 509.117188 L 744.882812 461.363281 Z M 638.421875 460.703125 L 634.640625 441.5625 L 627.039062 445.925781 Z M 720.988281 775.214844 L 773.808594 730.660156 L 681.265625 769.132812 Z M 617.644531 572.855469 L 645.089844 578.078125 L 616.320312 564.550781 Z M 660.605469 710.855469 L 817.472656 621.546875 L 654.796875 543.308594 Z M 891.148438 293.347656 L 830.609375 314.164062 L 880.738281 361.605469 Z M 785.699219 383.164062 L 821.914062 369.480469 L 810.453125 348.390625 Z M 461.285156 632.460938 L 529.972656 542.996094 L 495.355469 555.78125 Z M 839.378906 501.671875 L 852.671875 494.8125 L 846.203125 445.539062 Z M 439.335938 524.011719 L 460.308594 551.296875 L 453.332031 515.941406 Z M 738.414062 503.699219 L 715.609375 521.242188 L 745.117188 515.394531 Z M 545.488281 641.308594 L 560.378906 644.15625 L 544.785156 636.828125 Z M 755.957031 469.316406 L 781.644531 443.433594 L 745.546875 455.75 Z M 541.472656 126.152344 L 601.078125 182.871094 L 762.347656 170.628906 Z M 415.867188 596.089844 L 445.808594 573.089844 L 388.699219 516.253906 Z M 526.8125 345.15625 L 577.570312 229.765625 L 481.046875 291.085938 Z M 559.519531 468.1875 L 532.273438 416.105469 L 547.164062 499.996094 Z M 1302.261719 524.011719 L 1323.234375 551.296875 L 1316.257812 515.941406 Z M 1251.625 516.253906 L 1278.792969 596.089844 L 1308.734375 573.089844 Z M 1271.347656 306.679688 L 1273.101562 315.609375 L 1271.738281 315.53125 L 1273.726562 318.765625 L 1275.128906 325.859375 L 1277.273438 324.613281 L 1307.253906 374.042969 L 1340.035156 319.582031 L 1278.445312 315.917969 Z M 1289.710938 657.917969 L 1321.792969 719.160156 L 1304.25 620.453125 Z M 1377.8125 646.804688 L 1384.085938 613.90625 L 1367.871094 648.367188 Z M 1341.402344 232.613281 L 1381.75 339.660156 L 1437.53125 309.292969 L 1437.53125 301.183594 Z M 1395.199219 416.105469 L 1410.128906 499.996094 L 1422.445312 468.1875 Z M 1406.699219 768.355469 L 1437.53125 737.285156 L 1437.53125 726.214844 L 1387.519531 743.289062 Z M 1284.136719 437.507812 L 1225.191406 445.265625 L 1292.320312 453.449219 Z M 983.578125 650.976562 L 1002.015625 609.421875 L 964.789062 657.917969 Z M 890.914062 648.5625 L 951.960938 562.835938 L 862.691406 596.597656 Z M 846.667969 391.820312 L 854.855469 454.308594 L 863.507812 383.164062 Z M 998.3125 567.085938 L 1012.425781 451.113281 L 984.941406 465.261719 Z M 1189.992188 730.890625 L 1206.519531 622.675781 L 1110.542969 655.65625 Z M 1028.992188 679.394531 L 1102.59375 722.199219 L 1086.296875 692.183594 Z M 1149.058594 40.621094 L 1103.253906 56.996094 L 1149.058594 222.476562 Z M 975.117188 406.945312 L 1028.40625 365.894531 L 959.40625 379.578125 Z M 127.785156 309.175781 L 99.523438 150.359375 L 76.171875 210.625 Z M 477.109375 319.582031 L 408.8125 315.53125 L 444.328125 374.042969 Z M 1047.351562 220.527344 L 956.054688 146.34375 L 930.988281 270.699219 Z M 926.195312 116.40625 L 907.714844 157.960938 L 944.984375 109.464844 Z M 220.292969 274.089844 L 214.171875 309.214844 L 275.101562 291.632812 Z M 175.421875 169.109375 L 158.855469 277.328125 L 254.832031 244.347656 Z M 295.136719 374.003906 L 305.507812 394.234375 L 380.238281 384.414062 Z M 353.378906 536.679688 L 303.285156 449.046875 L 315.957031 458.050781 L 299.582031 414.664062 L 274.359375 428.386719 L 297.164062 444.679688 L 244.421875 527.285156 Z M 1362.804688 97.304688 L 1307.332031 128.214844 L 1364.519531 165.757812 Z M 421.210938 437.507812 L 362.265625 445.265625 L 429.394531 453.449219 Z M 1335.945312 226.414062 L 1197.164062 209.496094 L 1214.082031 242.4375 Z M 1398.941406 127.28125 L 1384.046875 124.433594 L 1399.640625 131.804688 Z M 1137.285156 428.386719 L 1178.882812 458.050781 L 1162.507812 414.664062 Z M 1119.238281 335.019531 L 1155.335938 322.703125 L 1144.925781 309.136719 Z M 1225.191406 308.628906 L 1176.074219 244.738281 L 1192.449219 327.496094 Z M 1080.566406 153.085938 L 1065.480469 149.152344 L 1077.796875 159.871094 Z M 1243.164062 384.414062 L 1158.066406 374.003906 L 1168.433594 394.234375 Z M 337.589844 256.742188 L 327.804688 220.214844 L 253.503906 251.285156 Z M 84.554688 612.65625 L 109.308594 644.855469 L 101.082031 603.144531 Z M 109.929688 495.746094 L 163.296875 583.5 L 129.34375 471.695312 Z M 92.117188 529.273438 L 84.515625 533.640625 L 95.898438 548.453125 Z M 238.847656 569.269531 L 202.75 581.589844 L 213.15625 595.152344 Z M 344.957031 670.273438 L 359.1875 656.902344 L 351.46875 652.769531 Z M 60.109375 716.15625 L 74.964844 719.003906 L 59.371094 711.636719 Z M 217.210938 709.6875 L 224.382812 708.359375 L 219.511719 693.546875 Z M 313.304688 753.347656 L 341.058594 713.351562 L 207.621094 605.40625 Z M 53.132812 257.210938 L 53.5625 314.476562 L 107.941406 285.433594 Z M 0.464844 663.996094 L 18.046875 692.960938 L 56.679688 628.796875 L 0.464844 625.445312 Z M 143.652344 72.003906 L 111.566406 10.761719 L 129.109375 109.464844 Z M 134.996094 157.921875 L 175.578125 152.621094 L 129.34375 146.96875 Z M 127.589844 398.796875 L 157.605469 389.128906 L 128.644531 328.394531 Z M 80.304688 97.574219 L 0.464844 148.332031 L 0.464844 209.925781 L 20.503906 233.625 Z M 90.59375 435.207031 L 67.167969 439.847656 L 72.507812 449.125 Z M 324.0625 100.8125 L 233.390625 218.890625 L 278.375 117.691406 L 324.0625 100.8125 " fill-opacity="1" fill-rule="nonzero"/></g></g></g></g></svg>